<svg viewBox="0 0 106 106" fill="none" xmlns="http://www.w3.org/2000/svg">
<path d="M71.5907 45.8721H49.3596C48.9237 44.1285 47.6159 38.4617 46.7441 34.5386C45.7349 29.9968 42.821 28.4359 40.6415 28.4359H21.8976V48.9234H11V60.2569H77.2574V51.5388C77.2574 47.0054 73.4796 45.8721 71.5907 45.8721Z" stroke="currentColor" stroke-width="2" stroke-linecap="round" stroke-linejoin="round"/>
<path d="M49.3627 45.872V54.1542L34.5419 49.3592C33.3795 49.0686 31.0547 47.79 31.0547 45.0002C31.0547 42.2104 31.0547 38.0257 31.0547 36.2821" stroke="currentColor" stroke-width="2" stroke-linecap="round" stroke-linejoin="round"/>
<path d="M56.332 45.8721V28" stroke="currentColor" stroke-width="2" stroke-linecap="round" stroke-linejoin="round"/>
<path d="M80.7422 39.7694V62.4364C80.7422 67.6673 83.7935 76.0366 95.9988 76.3853" stroke="currentColor" stroke-width="2" stroke-linecap="round" stroke-linejoin="round"/>
<rect x="11" y="63.7441" width="66.2574" height="14.8207" rx="7.41037" stroke="currentColor" stroke-width="2" stroke-linecap="round" stroke-linejoin="round"/>
<path d="M65.4834 63.7441H80.74" stroke="currentColor" stroke-width="2" stroke-linecap="round" stroke-linejoin="round"/>
<path d="M12.7529 45.2053C12.7529 42.4439 14.9915 40.2053 17.7529 40.2053H21.471V48.9234H12.7529V45.2053Z" fill="#7C8D66" stroke="currentColor" stroke-width="2" stroke-linecap="round" stroke-linejoin="round"/>
</svg>
