<svg viewBox="0 0 29 20" fill="none" xmlns="http://www.w3.org/2000/svg">
  <path fill-rule="evenodd" clip-rule="evenodd" d="M18.0271 18.663C18.2553 18.8877 18.55 19 18.8542 19C19.1585 19 19.4532 18.8877 19.6813 18.663L27.6577 10.8097C28.1141 10.3604 28.1141 9.63963 27.6577 9.19033L19.6813 1.33697C19.225 0.887676 18.493 0.887676 18.0366 1.33697C17.5803 1.78627 17.5803 2.50702 18.0366 2.95632L24.0261 8.85335H2.16937C1.52289 8.85335 1 9.36818 1 10.0047C1 10.6412 1.52289 11.156 2.16937 11.156H24.0166L18.0271 17.053C17.5708 17.493 17.5708 18.2231 18.0271 18.663Z" fill="currentColor"/>
</svg>
