<svg viewBox="0 0 106 106" fill="none" xmlns="http://www.w3.org/2000/svg">
<path d="M51.2875 88.4182L24.0111 61.1417L12.4617 61.4717L45.3479 94.3579L51.2875 88.4182Z" fill="#7C8D66"/>
<path d="M72.8484 22.8638L61.959 11.9744L12.4615 61.4718L45.1298 94.1402L56.6793 82.5908L34.9004 60.8119L72.8484 22.8638Z" stroke="currentColor" stroke-width="2" stroke-linecap="round" stroke-linejoin="round"/>
<path d="M34.9002 60.8118L12.4613 61.4718" stroke="currentColor" stroke-width="2" stroke-linecap="round" stroke-linejoin="round"/>
<circle cx="58.6572" cy="16.7334" r="1.5" transform="rotate(45 58.6572 16.7334)" fill="currentColor"/>
<circle cx="52.293" cy="23.0974" r="1.5" transform="rotate(45 52.293 23.0974)" fill="currentColor"/>
<circle cx="45.9297" cy="29.4614" r="1.5" transform="rotate(45 45.9297 29.4614)" fill="currentColor"/>
<circle cx="39.5654" cy="35.8252" r="1.5" transform="rotate(45 39.5654 35.8252)" fill="currentColor"/>
<circle cx="33.2012" cy="42.1892" r="1.5" transform="rotate(45 33.2012 42.1892)" fill="currentColor"/>
<circle cx="26.8379" cy="48.5532" r="1.5" transform="rotate(45 26.8379 48.5532)" fill="currentColor"/>
<circle cx="20.4736" cy="54.9172" r="1.5" transform="rotate(45 20.4736 54.9172)" fill="currentColor"/>
</svg>
